<svg xmlns="http://www.w3.org/2000/svg" version="1.1" xmlns:xlink="http://www.w3.org/1999/xlink" xmlns:svgjs="http://svgjs.dev/svgjs" width="1000" height="623" viewBox="0 0 1000 623"><g transform="matrix(1,0,0,1,-0.6060606060606233,0.2522267206477409)"><svg viewBox="0 0 396 247" data-background-color="#ffffff" preserveAspectRatio="xMidYMid meet" height="623" width="1000" xmlns="http://www.w3.org/2000/svg" xmlns:xlink="http://www.w3.org/1999/xlink"><g id="tight-bounds" transform="matrix(1,0,0,1,0.2400000000000091,-0.09999999999999432)"><svg viewBox="0 0 395.52 247.2" height="247.2" width="395.52"><g><svg></svg></g><g><svg viewBox="0 0 395.52 247.2" height="247.2" width="395.52"><mask id="fd68e3e5-e90b-4601-b568-bcac733516de"><rect width="640" height="400" fill="white"></rect><g transform="matrix(1,0,0,1,39.55199999999999,99.76889459756494)"><svg viewBox="0 0 316.416 47.66221080487011" height="47.66221080487011" width="316.416"><g><svg viewBox="0 0 316.416 47.66221080487011" height="47.66221080487011" width="316.416"><g><svg viewBox="0 0 316.416 47.66221080487011" height="47.66221080487011" width="316.416"><g><svg viewBox="0 0 316.416 47.66221080487011" height="47.66221080487011" width="316.416"><g id="SvgjsG2273"><svg viewBox="0 0 316.416 47.66221080487011" height="47.66221080487011" width="316.416" id="SvgjsSvg2272"><g><svg viewBox="0 0 316.416 47.66221080487011" height="47.66221080487011" width="316.416"><g transform="matrix(1,0,0,1,0,0)"><svg width="316.416" viewBox="-1.6399998664855957 -42.72999954223633 319.08001708984375 48.90999984741211" height="47.66221080487011" data-palette-color="#8256d4"><path d="M8.62 1.27L4.17 1.27Q3.91 1.22 3.78 1 3.66 0.78 3.66 0.51L3.66 0.51Q3.66 0.29 3.76 0.12L3.76 0.12 6.76-5.62Q6.79-5.71 6.85-6.37 6.91-7.03 6.98-8.02 7.06-9.01 7.14-10.23 7.23-11.45 7.32-12.65 7.42-13.84 7.51-14.93 7.59-16.02 7.67-16.75L7.67-16.75Q7.69-17.04 7.74-17.64 7.79-18.24 7.84-19.02 7.89-19.8 7.96-20.7 8.03-21.61 8.11-22.51L8.11-22.51 8.45-27.61Q7.79-27.47 7.08-27.31 6.37-27.15 5.7-27.03 5.03-26.9 4.43-26.82 3.83-26.73 3.39-26.73L3.39-26.73Q3.13-26.73 2.99-26.98 2.86-27.22 2.86-27.49L2.86-27.49Q2.86-27.81 3-27.95L3-27.95 9.2-33.74Q9.96-34.42 10.71-34.85 11.45-35.28 12.5-35.52 13.55-35.77 15.08-35.85 16.6-35.94 18.95-35.94L18.95-35.94Q22.95-35.94 26.05-35.11 29.15-34.28 31.3-32.74L31.3-32.74Q32.89-31.64 34.13-30.44 35.38-29.25 36.23-27.8 37.08-26.34 37.52-24.6 37.96-22.85 37.96-20.65L37.96-20.65Q37.96-16.48 36.72-13.23 35.47-9.99 33.33-7.56 31.18-5.13 28.31-3.44 25.44-1.76 22.18-0.71 18.92 0.34 15.44 0.81 11.96 1.27 8.62 1.27L8.62 1.27ZM18.36-28.13L18.36-28.13 18.07-25.17Q17.92-23.63 17.76-21.89 17.6-20.14 17.46-18.35 17.31-16.55 17.16-14.81 17.02-13.06 16.89-11.55 16.77-10.03 16.67-8.84 16.58-7.64 16.5-6.93L16.5-6.93 16.43-6.2Q19.38-6.2 21.42-7.15 23.46-8.11 24.73-9.78 26-11.45 26.57-13.7 27.15-15.94 27.15-18.53L27.15-18.53Q27.15-20.39 26.64-22.11 26.12-23.83 25.15-25.39L25.15-25.39Q24.17-26.95 22.75-27.73 21.34-28.52 19.56-28.52L19.56-28.52Q19.26-28.52 18.92-28.38 18.58-28.25 18.36-28.13ZM41.09 0.78L41.09 0.78 42.31-15.92Q42.92-24.32 43.21-28.25 43.5-32.18 43.5-32.15L43.5-32.15Q43.53-32.59 43.55-32.89 43.58-33.18 43.65-33.37 43.72-33.57 43.85-33.67 43.97-33.76 44.21-33.81L44.21-33.81 52.66-35.84Q52.98-35.94 53.32-35.94L53.32-35.94Q53.66-35.94 53.78-35.73 53.9-35.52 53.9-34.89L53.9-34.89Q53.73-33.37 53.64-32.06 53.54-30.74 53.48-29.54 53.42-28.34 53.37-27.23 53.32-26.12 53.24-25.02L53.24-25.02Q53.1-23.83 52.99-22.63 52.88-21.44 52.78-20.15 52.68-18.87 52.57-17.44 52.46-16.02 52.32-14.33L52.32-14.33 51.24-1.46Q51.22-1.25 51.16-1.04 51.1-0.83 50.83-0.71L50.83-0.71Q50.8-0.71 50.53-0.61 50.27-0.51 49.83-0.35 49.39-0.2 48.8-0.02 48.22 0.15 47.56 0.29L47.56 0.29Q46.46 0.54 45.64 0.78 44.82 1.03 44.19 1.23 43.55 1.44 43.02 1.56 42.48 1.68 41.94 1.68L41.94 1.68Q41.57 1.68 41.33 1.49 41.09 1.29 41.09 0.78ZM70.36-34.99L70.36-34.99Q70.33-34.4 70.26-33.53 70.19-32.67 70.1-31.7 70.01-30.74 69.9-29.75 69.79-28.76 69.71-27.93 69.62-27.1 69.58-26.5 69.53-25.9 69.53-25.73L69.53-25.73Q69.43-24.22 69.32-22.92 69.21-21.63 69.09-20.36 68.96-19.09 68.83-17.74 68.7-16.38 68.55-14.75 68.4-13.11 68.22-11.11 68.04-9.11 67.84-6.52L67.84-6.52 77.95-7.54Q78.63-7.62 79.07-7.62L79.07-7.62Q79.61-7.62 79.74-7.45 79.88-7.28 79.88-6.91L79.88-6.91Q79.88-6.86 79.85-6.77 79.83-6.69 79.74-6.45 79.66-6.2 79.5-5.74 79.34-5.27 79.07-4.44L79.07-4.44 78.54-2.83Q78.27-2.05 78.03-1.43 77.8-0.81 77.46-0.35 77.12 0.1 76.61 0.37 76.09 0.63 75.29 0.71L75.29 0.71Q74.78 0.76 73.9 0.79 73.02 0.83 71.87 0.87 70.72 0.9 69.39 0.95 68.06 1 66.67 1.07L66.67 1.07Q65.3 1.12 63.91 1.14 62.52 1.15 61.27 1.17 60.03 1.2 58.98 1.22 57.93 1.25 57.25 1.27L57.25 1.27Q56.61 1.27 56.33 1.17 56.05 1.07 56.05 0.85L56.05 0.85Q56.05 0.59 56.22 0.09 56.39-0.42 56.66-1.04 56.93-1.66 57.26-2.33 57.59-3 57.91-3.64L57.91-3.64 58.56-12.35Q58.76-14.58 58.95-16.87 59.15-19.17 59.3-21.31L59.3-21.31 59.71-27.78Q59.86-30.08 59.91-31.12 59.96-32.15 59.96-32.25L59.96-32.25Q60-32.69 60.03-32.98 60.05-33.28 60.11-33.47 60.18-33.67 60.3-33.76 60.42-33.86 60.66-33.91L60.66-33.91 69.23-35.94Q69.5-36.04 69.89-36.04L69.89-36.04Q70.16-36.04 70.27-35.88 70.38-35.72 70.38-35.28L70.38-35.28Q70.38-35.23 70.37-35.14 70.36-35.06 70.36-34.99ZM80.58-1.78L80.58-1.78Q80.9-2.42 81.24-3.21 81.58-4 81.88-4.93L81.88-4.93 82.54-6.54Q82.1-7.2 81.65-7.97 81.19-8.74 80.83-9.55 80.46-10.35 80.23-11.16 80-11.96 80-12.72L80-12.72Q80-12.77 80.38-12.81 80.75-12.84 81.33-12.87 81.9-12.89 82.57-12.9 83.24-12.92 83.82-12.93 84.39-12.94 84.77-12.95 85.15-12.96 85.15-12.96L85.15-12.96Q85.71-14.43 86.25-15.75 86.78-17.07 87.32-18.41 87.86-19.75 88.4-21.15 88.93-22.56 89.47-24.17L89.47-24.17Q90.5-27.2 91.47-29.49 92.45-31.79 93.3-33.76L93.3-33.76Q93.4-34.01 93.63-34.22 93.86-34.42 94.13-34.57 94.4-34.72 94.66-34.81 94.91-34.91 95.06-34.96L95.06-34.96Q95.16-34.99 95.81-35.18 96.45-35.38 97.28-35.6 98.11-35.82 98.93-35.99 99.75-36.16 100.24-36.16L100.24-36.16 100.68-36.16Q101.07-36.16 101.42-35.97 101.77-35.79 101.9-35.25L101.9-35.25Q103.07-32.25 104.4-28.7 105.73-25.15 107-20.87L107-20.87Q107.68-18.58 108.34-16.53 109-14.48 109.66-12.52 110.32-10.57 110.99-8.62 111.66-6.67 112.37-4.59L112.37-4.59Q112.59-3.71 112.82-3.2 113.05-2.69 113.25-2.39 113.44-2.1 113.57-1.97 113.69-1.83 113.69-1.68L113.69-1.68Q113.69-1.54 113.22-1.39L113.22-1.39 107.98 0.32Q107.39 0.54 106.78 0.76 106.17 0.98 105.63 1.15 105.1 1.32 104.69 1.43 104.29 1.54 104.12 1.54L104.12 1.54 103.97 1.54Q103.63 1.54 103.48 1.33 103.34 1.12 103.29 0.93L103.29 0.93Q103.04 0.12 102.8-0.52 102.56-1.17 102.32-1.82 102.09-2.47 101.86-3.2 101.63-3.93 101.41-4.93L101.41-4.93Q101.36-5.05 101.14-5.14 100.92-5.22 100.62-5.27 100.31-5.32 99.97-5.33 99.63-5.35 99.33-5.35L99.33-5.35Q98.41-5.35 97.83-5.33 97.26-5.32 96.82-5.31 96.38-5.3 95.98-5.29 95.57-5.27 94.99-5.27L94.99-5.27Q94.28-5.27 93.53-5.29 92.79-5.3 92.18-5.32L92.18-5.32 90.79-5.37Q90.15-3.61 89.52-2.08 88.88-0.54 88.15 1.1L88.15 1.1Q88.1 1.29 87.92 1.42 87.74 1.54 87.54 1.54L87.54 1.54Q87.39 1.54 87.37 1.51L87.37 1.51Q85 0.66 83.39-0.17 81.78-1 80.58-1.78ZM97.04-23.73L97.04-23.73Q96.45-21.56 95.88-19.79 95.31-18.02 94.83-16.65 94.35-15.28 94.01-14.34 93.67-13.4 93.52-12.89L93.52-12.89 93.52-12.67Q93.52-12.52 93.5-12.48L93.5-12.48 99.36-12.48Q99.09-13.67 98.78-14.89 98.48-16.11 98.19-17.46 97.89-18.8 97.6-20.34 97.31-21.88 97.04-23.73ZM136.98-14.43L136.98-32.71Q137.17-33.52 137.32-33.89 137.47-34.25 137.95-34.38L137.95-34.38 144.28-35.86Q144.57-35.96 144.91-35.96L144.91-35.96Q145.23-35.96 145.38-35.74 145.52-35.52 145.52-34.91L145.52-34.91Q145.38-34.33 145.28-33.12 145.18-31.91 145.13-30.47 145.08-29.03 145.06-27.58 145.03-26.12 145.03-25.05L145.03-25.05 145.03-23.71Q145.03-22.19 145.01-20.41 144.99-18.63 144.95-16.8 144.91-14.97 144.86-13.18 144.81-11.4 144.77-9.84L144.77-9.84 144.62-5.66Q144.59-5.54 144.59-5.44 144.59-5.35 144.59-5.25L144.59-5.25 144.59-4.88Q144.59-4.47 144.61-4.19 144.62-3.91 144.62-3.69L144.62-3.69Q144.62-3.44 144.58-3.25 144.55-3.05 144.4-2.87 144.25-2.69 144-2.49 143.74-2.29 143.3-2L143.3-2Q143.06-1.83 142.49-1.5 141.93-1.17 141.25-0.76 140.57-0.34 139.83 0.1 139.1 0.54 138.49 0.89 137.88 1.25 137.5 1.46 137.12 1.68 137.12 1.68L137.12 1.68 125.8-15.75 124.77-1.46Q124.75-1.27 124.68-1.05 124.62-0.83 124.36-0.71L124.36-0.71Q124.14-0.61 123.6-0.4 123.06-0.2 122.34 0.07 121.62 0.34 120.83 0.62 120.03 0.9 119.33 1.14 118.62 1.37 118.07 1.51 117.52 1.66 117.32 1.66L117.32 1.66Q116.96 1.66 116.71 1.46 116.47 1.27 116.47 0.76L116.47 0.76Q116.71-2.29 117.03-5.9 117.35-9.5 117.64-13.28 117.93-17.07 118.19-20.84 118.45-24.61 118.62-28L118.62-28Q118.62-28.1 118.31-28.65 118.01-29.2 117.63-29.85 117.25-30.49 116.95-31.07 116.64-31.64 116.64-31.79L116.64-31.79Q116.64-31.96 116.82-32.1 117.01-32.25 117.42-32.5L117.42-32.5 123.94-36.18Q124.01-36.18 124.15-36.21 124.28-36.23 124.38-36.23L124.38-36.23Q124.65-36.23 124.81-36.17 124.97-36.11 125.14-35.79L125.14-35.79 136.98-14.43ZM173.54-34.99L173.54-34.99Q173.52-34.4 173.45-33.53 173.37-32.67 173.29-31.7 173.2-30.74 173.09-29.75 172.98-28.76 172.9-27.93 172.81-27.1 172.76-26.5 172.71-25.9 172.71-25.73L172.71-25.73Q172.62-24.22 172.51-22.92 172.4-21.63 172.28-20.36 172.15-19.09 172.02-17.74 171.88-16.38 171.74-14.75 171.59-13.11 171.41-11.11 171.23-9.11 171.03-6.52L171.03-6.52 181.14-7.54Q181.82-7.62 182.26-7.62L182.26-7.62Q182.8-7.62 182.93-7.45 183.07-7.28 183.07-6.91L183.07-6.91Q183.07-6.86 183.04-6.77 183.02-6.69 182.93-6.45 182.85-6.2 182.69-5.74 182.53-5.27 182.26-4.44L182.26-4.44 181.72-2.83Q181.45-2.05 181.22-1.43 180.99-0.81 180.65-0.35 180.31 0.1 179.79 0.37 179.28 0.63 178.48 0.71L178.48 0.71Q177.96 0.76 177.08 0.79 176.21 0.83 175.06 0.87 173.91 0.9 172.58 0.95 171.25 1 169.86 1.07L169.86 1.07Q168.49 1.12 167.1 1.14 165.71 1.15 164.46 1.17 163.22 1.2 162.17 1.22 161.12 1.25 160.43 1.27L160.43 1.27Q159.8 1.27 159.52 1.17 159.24 1.07 159.24 0.85L159.24 0.85Q159.24 0.59 159.41 0.09 159.58-0.42 159.85-1.04 160.12-1.66 160.45-2.33 160.78-3 161.09-3.64L161.09-3.64 161.75-12.35Q161.95-14.58 162.14-16.87 162.34-19.17 162.49-21.31L162.49-21.31 162.9-27.78Q163.05-30.08 163.1-31.12 163.14-32.15 163.14-32.25L163.14-32.25Q163.19-32.69 163.22-32.98 163.24-33.28 163.3-33.47 163.36-33.67 163.49-33.76 163.61-33.86 163.85-33.91L163.85-33.91 172.42-35.94Q172.69-36.04 173.08-36.04L173.08-36.04Q173.35-36.04 173.46-35.88 173.57-35.72 173.57-35.28L173.57-35.28Q173.57-35.23 173.56-35.14 173.54-35.06 173.54-34.99ZM195.25-16.65L195.25-16.65Q195.25-14.89 195.62-13.12 196-11.35 196.88-9.94 197.76-8.52 199.2-7.64 200.64-6.76 202.77-6.76L202.77-6.76Q204.4-6.86 205.63-7.43 206.87-8.01 207.76-8.92 208.65-9.84 209.24-11.02 209.82-12.21 210.16-13.51 210.5-14.82 210.64-16.19 210.77-17.55 210.77-18.82L210.77-18.82Q210.77-20.56 210.31-22.18 209.85-23.8 208.92-25.05 207.99-26.29 206.61-27.05 205.23-27.81 203.4-27.81L203.4-27.81Q201.96-27.81 200.8-27.27 199.64-26.73 198.74-25.84 197.83-24.95 197.19-23.79 196.54-22.63 196.11-21.4 195.69-20.17 195.48-18.93 195.27-17.7 195.25-16.65ZM200.01 1.27L200.01 1.27Q196.34 1.27 193.46-0.1 190.58-1.46 188.59-3.8 186.6-6.13 185.54-9.19 184.48-12.26 184.48-15.67L184.48-15.67Q184.48-19.51 185.57-22.74 186.65-25.98 188.61-28.48 190.56-30.98 193.26-32.7 195.95-34.42 199.18-35.25L199.18-35.25Q199.47-35.25 199.63-35.72 199.79-36.18 199.91-36.74 200.03-37.3 200.2-37.77 200.37-38.23 200.69-38.23L200.69-38.23Q205.43-37.74 209.21-36.56 213-35.38 215.63-33.18 218.27-30.98 219.67-27.62 221.08-24.27 221.08-19.43L221.08-19.43Q221.08-16.33 220.32-13.6 219.56-10.86 218.2-8.56 216.83-6.25 214.91-4.43 213-2.61 210.65-1.34 208.31-0.07 205.61 0.6 202.91 1.27 200.01 1.27ZM254.86-25.37L254.86-25.37Q254.84-23.27 254.46-21.61 254.08-19.95 253.39-18.62 252.69-17.29 251.7-16.22 250.71-15.16 249.44-14.23L249.44-14.23Q247-12.48 244.1-11.58 241.19-10.69 238.26-10.69L238.26-10.69Q237.77-10.69 237.3-10.72 236.82-10.74 236.33-10.79L236.33-10.79 235.53-1.88 235.11-1.12Q235.06-1.03 234.28-0.73 233.5-0.44 232.33-0.05L232.33-0.05 230.79 0.46Q230.06 0.73 229.5 0.95 228.94 1.17 228.45 1.34 227.96 1.51 227.49 1.6 227.03 1.68 226.52 1.68L226.52 1.68Q226.18 1.68 225.98 1.51 225.79 1.34 225.79 0.85L225.79 0.85 226.05-3.32Q226.13-4.57 226.24-5.82 226.35-7.08 226.44-8.69L226.44-8.69 226.91-14.53Q227.06-16.31 227.18-18.09 227.3-19.87 227.42-21.48 227.54-23.1 227.64-24.5 227.74-25.9 227.81-26.95L227.81-26.95Q226.49-26.66 225.7-26.53 224.91-26.39 224.49-26.39L224.49-26.39Q223.98-26.39 223.98-26.83L223.98-26.83Q224.32-28.03 224.61-29.17L224.61-29.17Q224.88-30.15 225.16-31.19 225.44-32.23 225.64-32.93L225.64-32.93Q225.76-33.37 225.92-33.61 226.08-33.84 226.33-33.97 226.59-34.11 226.99-34.22 227.4-34.33 227.98-34.52L227.98-34.52Q228.45-34.67 229.29-34.85 230.13-35.03 231.22-35.22 232.3-35.4 233.57-35.57 234.84-35.74 236.15-35.88 237.46-36.01 238.73-36.1 239.99-36.18 241.12-36.18L241.12-36.18Q243.9-36.18 246.39-35.67 248.88-35.16 250.76-33.92 252.64-32.69 253.75-30.6 254.86-28.52 254.86-25.37ZM237.02-18.04L237.02-18.04Q237.02-17.77 237.11-17.57 237.21-17.36 237.65-17.36L237.65-17.36Q238.33-17.36 239.27-17.66 240.21-17.97 241.15-18.58 242.09-19.19 242.9-20.09 243.71-21 244.12-22.22L244.12-22.22Q244.29-22.71 244.4-23.46 244.51-24.22 244.51-25.24L244.51-25.24Q244.51-26.95 243.33-27.76 242.14-28.56 240.24-28.56L240.24-28.56Q239.92-28.56 239.52-28.53 239.12-28.49 238.76-28.39 238.41-28.3 238.16-28.16 237.92-28.03 237.9-27.81L237.9-27.81 237.85-27.27Q237.82-26.95 237.75-26.23 237.68-25.51 237.59-24.58 237.5-23.66 237.42-22.63 237.33-21.61 237.25-20.68 237.16-19.75 237.1-19.04 237.04-18.33 237.02-18.04ZM278.4-20.26L278.4-20.26Q278.3-19.92 278.03-19.3 277.76-18.68 277.41-17.9 277.05-17.11 276.65-16.22 276.25-15.33 275.86-14.43L275.86-14.43Q275.71-14.09 275.59-13.93 275.47-13.77 275.2-13.7 274.93-13.62 274.45-13.61 273.98-13.6 273.12-13.57L273.12-13.57 269.73-13.5 269.04-6.03 281.57-6.03 281.57-5.08Q281.52-5.03 281.15-4.43 280.79-3.83 280.3-3 279.81-2.17 279.27-1.33 278.74-0.49 278.37 0.02L278.37 0.02Q278.13 0.46 277.81 0.72 277.49 0.98 277.11 1.1 276.74 1.22 276.28 1.25 275.83 1.27 275.29 1.27L275.29 1.27Q273.1 1.27 270.72 1.17 268.34 1.07 265.97 0.93 263.6 0.78 261.34 0.6 259.08 0.42 257.16 0.22L257.16 0.22Q256.98 0.2 256.85 0.02 256.72-0.15 256.72-0.37L256.72-0.37Q256.62-0.37 256.85-0.78 257.08-1.2 257.5-1.86 257.91-2.51 258.41-3.36 258.91-4.2 259.38-5.05L259.38-5.05 259.77-10.55Q259.87-11.94 259.93-12.62 259.99-13.31 259.99-13.35L259.99-13.35Q258.52-13.38 257.8-13.5 257.08-13.62 257.08-14.04L257.08-14.04Q257.08-14.23 257.44-14.77 257.79-15.31 258.3-16 258.82-16.7 259.39-17.46 259.96-18.21 260.4-18.85L260.4-18.85 261.01-27.15 260.94-27.15Q260.4-27.12 259.96-27.11 259.52-27.1 259.16-27.1L259.16-27.1Q257.99-27.1 257.48-27.23 256.98-27.37 256.98-27.73L256.98-27.73Q256.98-27.91 257.28-28.44 257.57-28.98 258.01-29.68 258.45-30.37 258.94-31.14 259.43-31.91 259.82-32.57L259.82-32.57 261.28-35.06 271.49-35.06 283.52-35.94Q283.55-35.94 283.66-35.93 283.77-35.91 283.89-35.85 284.01-35.79 284.12-35.64 284.23-35.5 284.23-35.23L284.23-35.23 283.86-33.96Q283.69-33.42 283.45-32.82 283.21-32.23 282.91-31.59L282.91-31.59 281.84-28.76Q281.67-28.34 281.45-28.13 281.23-27.91 280.52-27.88L280.52-27.88Q278.66-27.83 276.38-27.72 274.1-27.61 271.14-27.51L271.14-27.51Q271.05-27.17 271.05-26.97 271.05-26.76 271-26.17L271-26.17 270.88-25.05Q270.83-24.27 270.73-23.36 270.63-22.46 270.49-21.14L270.49-21.14Q271.73-21.19 272.91-21.24 274.1-21.29 275.08-21.33 276.05-21.36 276.77-21.39 277.49-21.41 277.79-21.41L277.79-21.41Q277.98-21.41 278.22-21.26 278.47-21.12 278.47-20.7L278.47-20.7Q278.47-20.51 278.4-20.26ZM287.18 0L287.18 0Q286.89 0 286.6-0.06 286.3-0.12 286.06-0.28 285.81-0.44 285.66-0.72 285.5-1 285.5-1.46L285.5-1.46Q285.5-1.51 285.52-1.56 285.55-1.61 285.55-1.66L285.55-1.66 298.27-23.97Q298.27-24.05 297.74-24.11 297.22-24.17 296.4-24.21 295.58-24.24 294.6-24.28 293.63-24.32 292.74-24.33 291.85-24.34 291.15-24.35 290.45-24.37 290.21-24.37L290.21-24.37Q288.89-24.37 287.74-24.33 286.6-24.29 285.35-24.29L285.35-24.29Q285.08-24.29 284.89-24.48 284.69-24.66 284.69-24.9L284.69-24.9Q284.72-24.93 284.72-24.95L284.72-24.95Q284.72-25.02 284.74-25.1L284.74-25.1 287.89-32.64Q288.11-33.18 288.56-33.51 289.01-33.84 289.59-34.02 290.16-34.2 290.82-34.27 291.48-34.33 292.11-34.33L292.11-34.33Q294.77-34.33 297.36-34.22 299.95-34.11 302.53-33.98 305.1-33.86 307.68-33.75 310.25-33.64 312.89-33.64L312.89-33.64 312.89-32.64 301-10.42Q301-10.38 300.99-10.36 300.98-10.35 300.98-10.3L300.98-10.3Q300.98-10.03 301.22-10 301.46-9.96 301.66-9.96L301.66-9.96 306.49-9.96Q307.96-9.96 309.33-10.14 310.69-10.33 312.16-10.33L312.16-10.33Q312.45-10.33 312.69-10.14 312.94-9.96 312.94-9.69L312.94-9.69Q312.94-9.72 312.89-9.47L312.89-9.47 308.96-1.66Q308.76-1.07 308.24-0.73 307.71-0.39 306.97-0.22 306.23-0.05 305.32 0 304.42 0.05 303.47 0.05L303.47 0.05Q299.63 0.05 295.69 0.02 291.75 0 287.18 0Z" opacity="1" transform="matrix(1,0,0,1,0,0)" fill="black" class="wordmark-text-0" id="SvgjsPath2271" stroke-width="8" stroke="black" stroke-linejoin="round"></path></svg></g></svg></g></svg></g></svg></g></svg></g></svg></g></svg></g></mask><g transform="matrix(1,0,0,1,39.55199999999999,99.76889459756494)"><svg viewBox="0 0 316.416 47.66221080487011" height="47.66221080487011" width="316.416"><g><svg viewBox="0 0 316.416 47.66221080487011" height="47.66221080487011" width="316.416"><g><svg viewBox="0 0 316.416 47.66221080487011" height="47.66221080487011" width="316.416"><g><svg viewBox="0 0 316.416 47.66221080487011" height="47.66221080487011" width="316.416"><g id="textblocktransform"><svg viewBox="0 0 316.416 47.66221080487011" height="47.66221080487011" width="316.416" id="textblock"><g><svg viewBox="0 0 316.416 47.66221080487011" height="47.66221080487011" width="316.416"><g transform="matrix(1,0,0,1,0,0)"><svg width="316.416" viewBox="-1.6399998664855957 -42.72999954223633 319.08001708984375 48.90999984741211" height="47.66221080487011" data-palette-color="#8256d4"><path d="M8.62 1.27L4.17 1.27Q3.91 1.22 3.78 1 3.66 0.78 3.66 0.51L3.66 0.51Q3.66 0.29 3.76 0.12L3.76 0.12 6.76-5.62Q6.79-5.71 6.85-6.37 6.91-7.03 6.98-8.02 7.06-9.01 7.14-10.23 7.23-11.45 7.32-12.65 7.42-13.84 7.51-14.93 7.59-16.02 7.67-16.75L7.67-16.75Q7.69-17.04 7.74-17.64 7.79-18.24 7.84-19.02 7.89-19.8 7.96-20.7 8.03-21.61 8.11-22.51L8.11-22.51 8.45-27.61Q7.79-27.47 7.08-27.31 6.37-27.15 5.7-27.03 5.03-26.9 4.43-26.82 3.83-26.73 3.39-26.73L3.39-26.73Q3.13-26.73 2.99-26.98 2.86-27.22 2.86-27.49L2.86-27.49Q2.86-27.81 3-27.95L3-27.95 9.2-33.74Q9.96-34.42 10.71-34.85 11.45-35.28 12.5-35.52 13.55-35.77 15.08-35.85 16.6-35.94 18.95-35.94L18.95-35.94Q22.95-35.94 26.05-35.11 29.15-34.28 31.3-32.74L31.3-32.74Q32.89-31.64 34.13-30.44 35.38-29.25 36.23-27.8 37.08-26.34 37.52-24.6 37.96-22.85 37.96-20.65L37.96-20.65Q37.96-16.48 36.72-13.23 35.47-9.99 33.33-7.56 31.18-5.13 28.31-3.44 25.44-1.76 22.18-0.71 18.92 0.34 15.44 0.81 11.96 1.27 8.62 1.27L8.62 1.27ZM18.36-28.13L18.36-28.13 18.07-25.17Q17.92-23.63 17.76-21.89 17.6-20.14 17.46-18.35 17.31-16.55 17.16-14.81 17.02-13.06 16.89-11.55 16.77-10.03 16.67-8.84 16.58-7.64 16.5-6.93L16.5-6.93 16.43-6.2Q19.38-6.2 21.42-7.15 23.46-8.11 24.73-9.78 26-11.45 26.57-13.7 27.15-15.94 27.15-18.53L27.15-18.53Q27.15-20.39 26.64-22.11 26.12-23.83 25.15-25.39L25.15-25.39Q24.17-26.95 22.75-27.73 21.34-28.52 19.56-28.52L19.56-28.52Q19.26-28.52 18.92-28.38 18.58-28.25 18.36-28.13ZM41.09 0.78L41.09 0.78 42.31-15.92Q42.92-24.32 43.21-28.25 43.5-32.18 43.5-32.15L43.5-32.15Q43.53-32.59 43.55-32.89 43.58-33.18 43.65-33.37 43.72-33.57 43.85-33.67 43.97-33.76 44.21-33.81L44.21-33.81 52.66-35.84Q52.98-35.94 53.32-35.94L53.32-35.94Q53.66-35.94 53.78-35.73 53.9-35.52 53.9-34.89L53.9-34.89Q53.73-33.37 53.64-32.06 53.54-30.74 53.48-29.54 53.42-28.34 53.37-27.23 53.32-26.12 53.24-25.02L53.24-25.02Q53.1-23.83 52.99-22.63 52.88-21.44 52.78-20.15 52.68-18.87 52.57-17.44 52.46-16.02 52.32-14.33L52.32-14.33 51.24-1.46Q51.22-1.25 51.16-1.04 51.1-0.83 50.83-0.71L50.83-0.71Q50.8-0.71 50.53-0.61 50.27-0.51 49.83-0.35 49.39-0.2 48.8-0.02 48.22 0.15 47.56 0.29L47.56 0.29Q46.46 0.54 45.64 0.78 44.82 1.03 44.19 1.23 43.55 1.44 43.02 1.56 42.48 1.68 41.94 1.68L41.94 1.68Q41.57 1.68 41.33 1.49 41.09 1.29 41.09 0.78ZM70.36-34.99L70.36-34.99Q70.33-34.4 70.26-33.53 70.19-32.67 70.1-31.7 70.01-30.74 69.9-29.75 69.79-28.76 69.71-27.93 69.62-27.1 69.58-26.5 69.53-25.9 69.53-25.73L69.53-25.73Q69.43-24.22 69.32-22.92 69.21-21.63 69.09-20.36 68.96-19.09 68.83-17.74 68.7-16.38 68.55-14.75 68.4-13.11 68.22-11.11 68.04-9.11 67.84-6.52L67.84-6.52 77.95-7.54Q78.63-7.62 79.07-7.62L79.07-7.62Q79.61-7.62 79.74-7.45 79.88-7.28 79.88-6.91L79.88-6.91Q79.88-6.86 79.85-6.77 79.83-6.69 79.74-6.45 79.66-6.2 79.5-5.74 79.34-5.27 79.07-4.44L79.07-4.44 78.54-2.83Q78.27-2.05 78.03-1.43 77.8-0.81 77.46-0.35 77.12 0.1 76.61 0.37 76.09 0.63 75.29 0.71L75.29 0.71Q74.78 0.76 73.9 0.79 73.02 0.83 71.87 0.87 70.72 0.9 69.39 0.95 68.06 1 66.67 1.07L66.67 1.07Q65.3 1.12 63.91 1.14 62.52 1.15 61.27 1.17 60.03 1.2 58.98 1.22 57.93 1.25 57.25 1.27L57.25 1.27Q56.61 1.27 56.33 1.17 56.05 1.07 56.05 0.85L56.05 0.85Q56.05 0.59 56.22 0.09 56.39-0.42 56.66-1.04 56.93-1.66 57.26-2.33 57.59-3 57.91-3.64L57.91-3.64 58.56-12.35Q58.76-14.58 58.95-16.87 59.15-19.17 59.3-21.31L59.3-21.31 59.71-27.78Q59.86-30.08 59.91-31.12 59.96-32.15 59.96-32.25L59.96-32.25Q60-32.69 60.03-32.98 60.05-33.28 60.11-33.47 60.18-33.67 60.3-33.76 60.42-33.86 60.66-33.91L60.66-33.91 69.23-35.94Q69.5-36.04 69.89-36.04L69.89-36.04Q70.16-36.04 70.27-35.88 70.38-35.72 70.38-35.28L70.38-35.28Q70.38-35.23 70.37-35.14 70.36-35.06 70.36-34.99ZM80.58-1.78L80.58-1.78Q80.9-2.42 81.24-3.21 81.58-4 81.88-4.93L81.88-4.93 82.54-6.54Q82.1-7.2 81.65-7.97 81.19-8.74 80.83-9.55 80.46-10.35 80.23-11.16 80-11.96 80-12.72L80-12.72Q80-12.77 80.38-12.81 80.75-12.84 81.33-12.87 81.9-12.89 82.57-12.9 83.24-12.92 83.82-12.93 84.39-12.94 84.77-12.95 85.15-12.96 85.15-12.96L85.15-12.96Q85.71-14.43 86.25-15.75 86.78-17.07 87.32-18.41 87.86-19.75 88.4-21.15 88.93-22.56 89.47-24.17L89.47-24.17Q90.5-27.2 91.47-29.49 92.45-31.79 93.3-33.76L93.3-33.76Q93.4-34.01 93.63-34.22 93.86-34.42 94.13-34.57 94.4-34.72 94.66-34.81 94.91-34.91 95.06-34.96L95.06-34.96Q95.16-34.99 95.81-35.18 96.45-35.38 97.28-35.6 98.11-35.82 98.93-35.99 99.75-36.16 100.24-36.16L100.24-36.16 100.68-36.16Q101.07-36.16 101.42-35.97 101.77-35.79 101.9-35.25L101.9-35.25Q103.07-32.25 104.4-28.7 105.73-25.15 107-20.87L107-20.87Q107.68-18.58 108.34-16.53 109-14.48 109.66-12.52 110.32-10.57 110.99-8.62 111.66-6.67 112.37-4.59L112.37-4.59Q112.59-3.71 112.82-3.2 113.05-2.69 113.25-2.39 113.44-2.1 113.57-1.97 113.69-1.83 113.69-1.68L113.69-1.68Q113.69-1.54 113.22-1.39L113.22-1.39 107.98 0.32Q107.39 0.54 106.78 0.76 106.17 0.98 105.63 1.15 105.1 1.32 104.69 1.43 104.29 1.54 104.12 1.54L104.12 1.54 103.97 1.54Q103.63 1.54 103.48 1.33 103.34 1.12 103.29 0.93L103.29 0.93Q103.04 0.12 102.8-0.52 102.56-1.17 102.32-1.82 102.09-2.47 101.86-3.2 101.63-3.93 101.41-4.93L101.41-4.93Q101.36-5.05 101.14-5.14 100.92-5.22 100.62-5.27 100.31-5.32 99.97-5.33 99.63-5.35 99.33-5.35L99.33-5.35Q98.41-5.35 97.83-5.33 97.26-5.32 96.82-5.31 96.38-5.3 95.98-5.29 95.57-5.27 94.99-5.27L94.99-5.27Q94.28-5.27 93.53-5.29 92.79-5.3 92.18-5.32L92.18-5.32 90.79-5.37Q90.15-3.61 89.52-2.08 88.88-0.54 88.15 1.1L88.15 1.1Q88.1 1.29 87.92 1.42 87.74 1.54 87.54 1.54L87.54 1.54Q87.39 1.54 87.37 1.51L87.37 1.51Q85 0.66 83.39-0.17 81.78-1 80.58-1.78ZM97.04-23.73L97.04-23.73Q96.45-21.56 95.88-19.79 95.31-18.02 94.83-16.65 94.35-15.28 94.01-14.34 93.67-13.4 93.52-12.89L93.52-12.89 93.52-12.67Q93.52-12.52 93.5-12.48L93.5-12.48 99.36-12.48Q99.09-13.67 98.78-14.89 98.48-16.11 98.19-17.46 97.89-18.8 97.6-20.34 97.31-21.88 97.04-23.73ZM136.98-14.43L136.98-32.71Q137.17-33.52 137.32-33.89 137.47-34.25 137.95-34.38L137.95-34.38 144.28-35.86Q144.57-35.96 144.91-35.96L144.91-35.96Q145.23-35.96 145.38-35.74 145.52-35.52 145.52-34.91L145.52-34.91Q145.38-34.33 145.28-33.12 145.18-31.91 145.13-30.47 145.08-29.03 145.06-27.58 145.03-26.12 145.03-25.05L145.03-25.05 145.03-23.71Q145.03-22.19 145.01-20.41 144.99-18.63 144.95-16.8 144.91-14.97 144.86-13.18 144.81-11.4 144.77-9.84L144.77-9.84 144.62-5.66Q144.59-5.54 144.59-5.44 144.59-5.35 144.59-5.25L144.59-5.25 144.59-4.88Q144.59-4.47 144.61-4.19 144.62-3.91 144.62-3.69L144.62-3.69Q144.62-3.44 144.58-3.25 144.55-3.05 144.4-2.87 144.25-2.69 144-2.49 143.74-2.29 143.3-2L143.3-2Q143.06-1.83 142.49-1.5 141.93-1.17 141.25-0.76 140.57-0.34 139.83 0.1 139.1 0.54 138.49 0.89 137.88 1.25 137.5 1.46 137.12 1.68 137.12 1.68L137.12 1.68 125.8-15.75 124.77-1.46Q124.75-1.27 124.68-1.05 124.62-0.83 124.36-0.71L124.36-0.71Q124.14-0.61 123.6-0.4 123.06-0.2 122.34 0.07 121.62 0.34 120.83 0.62 120.03 0.9 119.33 1.14 118.62 1.37 118.07 1.51 117.52 1.66 117.32 1.66L117.32 1.66Q116.96 1.66 116.71 1.46 116.47 1.27 116.47 0.76L116.47 0.76Q116.71-2.29 117.03-5.9 117.35-9.5 117.64-13.28 117.93-17.07 118.19-20.84 118.45-24.61 118.62-28L118.62-28Q118.62-28.1 118.31-28.65 118.01-29.2 117.63-29.85 117.25-30.49 116.95-31.07 116.64-31.64 116.64-31.79L116.64-31.79Q116.64-31.96 116.82-32.1 117.01-32.25 117.42-32.5L117.42-32.5 123.94-36.18Q124.01-36.18 124.15-36.21 124.28-36.23 124.38-36.23L124.38-36.23Q124.65-36.23 124.81-36.17 124.97-36.11 125.14-35.79L125.14-35.79 136.98-14.43ZM173.54-34.99L173.54-34.99Q173.52-34.4 173.45-33.53 173.37-32.67 173.29-31.7 173.2-30.74 173.09-29.75 172.98-28.76 172.9-27.93 172.81-27.1 172.76-26.5 172.71-25.9 172.71-25.73L172.71-25.73Q172.62-24.22 172.51-22.92 172.4-21.63 172.28-20.36 172.15-19.09 172.02-17.74 171.88-16.38 171.74-14.75 171.59-13.11 171.41-11.11 171.23-9.11 171.03-6.52L171.03-6.52 181.14-7.54Q181.82-7.62 182.26-7.62L182.26-7.62Q182.8-7.62 182.93-7.45 183.07-7.28 183.07-6.91L183.07-6.91Q183.07-6.86 183.04-6.77 183.02-6.69 182.93-6.45 182.85-6.2 182.69-5.74 182.53-5.27 182.26-4.44L182.26-4.44 181.72-2.83Q181.45-2.05 181.22-1.43 180.99-0.81 180.65-0.35 180.31 0.1 179.79 0.37 179.28 0.63 178.48 0.71L178.48 0.71Q177.96 0.76 177.08 0.79 176.21 0.83 175.06 0.87 173.91 0.9 172.58 0.95 171.25 1 169.86 1.07L169.86 1.07Q168.49 1.12 167.1 1.14 165.71 1.15 164.46 1.17 163.22 1.2 162.17 1.22 161.12 1.25 160.43 1.27L160.43 1.27Q159.8 1.27 159.52 1.17 159.24 1.07 159.24 0.85L159.24 0.85Q159.24 0.59 159.41 0.09 159.58-0.42 159.85-1.04 160.12-1.66 160.45-2.33 160.78-3 161.09-3.64L161.09-3.64 161.75-12.35Q161.95-14.58 162.14-16.87 162.34-19.17 162.49-21.31L162.49-21.31 162.9-27.78Q163.05-30.08 163.1-31.12 163.14-32.15 163.14-32.25L163.14-32.25Q163.19-32.69 163.22-32.98 163.24-33.28 163.3-33.47 163.36-33.67 163.49-33.76 163.61-33.86 163.85-33.91L163.85-33.91 172.42-35.94Q172.69-36.04 173.08-36.04L173.08-36.04Q173.35-36.04 173.46-35.88 173.57-35.72 173.57-35.28L173.57-35.28Q173.57-35.23 173.56-35.14 173.54-35.06 173.54-34.99ZM195.25-16.65L195.25-16.65Q195.25-14.89 195.62-13.12 196-11.35 196.88-9.94 197.76-8.52 199.2-7.64 200.64-6.76 202.77-6.76L202.77-6.76Q204.4-6.86 205.63-7.43 206.87-8.01 207.76-8.92 208.65-9.84 209.24-11.02 209.82-12.21 210.16-13.51 210.5-14.82 210.64-16.19 210.77-17.55 210.77-18.82L210.77-18.82Q210.77-20.56 210.31-22.18 209.85-23.8 208.92-25.05 207.99-26.29 206.61-27.05 205.23-27.81 203.4-27.81L203.4-27.81Q201.96-27.81 200.8-27.27 199.64-26.73 198.74-25.84 197.83-24.95 197.19-23.79 196.54-22.63 196.11-21.4 195.69-20.17 195.48-18.93 195.27-17.7 195.25-16.65ZM200.01 1.27L200.01 1.27Q196.34 1.27 193.46-0.1 190.58-1.46 188.59-3.8 186.6-6.13 185.54-9.19 184.48-12.26 184.48-15.67L184.48-15.67Q184.48-19.51 185.57-22.74 186.65-25.98 188.61-28.48 190.56-30.98 193.26-32.7 195.95-34.42 199.18-35.25L199.18-35.25Q199.47-35.25 199.63-35.72 199.79-36.18 199.91-36.74 200.03-37.3 200.2-37.77 200.37-38.23 200.69-38.23L200.69-38.23Q205.43-37.74 209.21-36.56 213-35.38 215.63-33.18 218.27-30.98 219.67-27.62 221.08-24.27 221.08-19.43L221.08-19.43Q221.08-16.33 220.32-13.6 219.56-10.86 218.2-8.56 216.83-6.25 214.91-4.43 213-2.61 210.65-1.34 208.31-0.07 205.61 0.6 202.91 1.27 200.01 1.27ZM254.86-25.37L254.86-25.37Q254.84-23.27 254.46-21.61 254.08-19.95 253.39-18.62 252.69-17.29 251.7-16.22 250.71-15.16 249.44-14.23L249.44-14.23Q247-12.48 244.1-11.58 241.19-10.69 238.26-10.69L238.26-10.69Q237.77-10.69 237.3-10.72 236.82-10.74 236.33-10.79L236.33-10.79 235.53-1.88 235.11-1.12Q235.06-1.03 234.28-0.73 233.5-0.44 232.33-0.05L232.33-0.05 230.79 0.46Q230.06 0.73 229.5 0.95 228.94 1.17 228.45 1.34 227.96 1.51 227.49 1.6 227.03 1.68 226.52 1.68L226.52 1.68Q226.18 1.68 225.98 1.51 225.79 1.34 225.79 0.85L225.79 0.85 226.05-3.32Q226.13-4.57 226.24-5.82 226.35-7.08 226.44-8.69L226.44-8.69 226.91-14.53Q227.06-16.31 227.18-18.09 227.3-19.87 227.42-21.48 227.54-23.1 227.64-24.5 227.74-25.9 227.81-26.95L227.81-26.95Q226.49-26.66 225.7-26.53 224.91-26.39 224.49-26.39L224.49-26.39Q223.98-26.39 223.98-26.83L223.98-26.83Q224.32-28.03 224.61-29.17L224.61-29.17Q224.88-30.15 225.16-31.19 225.44-32.23 225.64-32.93L225.64-32.93Q225.76-33.37 225.92-33.61 226.08-33.84 226.33-33.97 226.59-34.11 226.99-34.22 227.4-34.33 227.98-34.52L227.98-34.52Q228.45-34.67 229.29-34.85 230.13-35.03 231.22-35.22 232.3-35.4 233.57-35.57 234.84-35.74 236.15-35.88 237.46-36.01 238.73-36.1 239.99-36.18 241.12-36.18L241.12-36.18Q243.9-36.18 246.39-35.67 248.88-35.16 250.76-33.92 252.64-32.69 253.75-30.6 254.86-28.52 254.86-25.37ZM237.02-18.04L237.02-18.04Q237.02-17.77 237.11-17.57 237.21-17.36 237.65-17.36L237.65-17.36Q238.33-17.36 239.27-17.66 240.21-17.97 241.15-18.58 242.09-19.19 242.9-20.09 243.71-21 244.12-22.22L244.12-22.22Q244.29-22.71 244.4-23.46 244.51-24.22 244.51-25.24L244.51-25.24Q244.51-26.95 243.33-27.76 242.14-28.56 240.24-28.56L240.24-28.56Q239.92-28.56 239.52-28.53 239.12-28.49 238.76-28.39 238.41-28.3 238.16-28.16 237.92-28.03 237.9-27.81L237.9-27.81 237.85-27.27Q237.82-26.95 237.75-26.23 237.68-25.51 237.59-24.58 237.5-23.66 237.42-22.63 237.33-21.61 237.25-20.68 237.16-19.75 237.1-19.04 237.04-18.33 237.02-18.04ZM278.4-20.26L278.4-20.26Q278.3-19.92 278.03-19.3 277.76-18.68 277.41-17.9 277.05-17.11 276.65-16.22 276.25-15.33 275.86-14.43L275.86-14.43Q275.71-14.09 275.59-13.93 275.47-13.77 275.2-13.7 274.93-13.62 274.45-13.61 273.98-13.6 273.12-13.57L273.12-13.57 269.73-13.5 269.04-6.03 281.57-6.03 281.57-5.08Q281.52-5.03 281.15-4.43 280.79-3.83 280.3-3 279.81-2.17 279.27-1.33 278.74-0.49 278.37 0.02L278.37 0.02Q278.13 0.46 277.81 0.72 277.49 0.98 277.11 1.1 276.74 1.22 276.28 1.25 275.83 1.27 275.29 1.27L275.29 1.27Q273.1 1.27 270.72 1.17 268.34 1.07 265.97 0.93 263.6 0.78 261.34 0.6 259.08 0.42 257.16 0.22L257.16 0.22Q256.98 0.2 256.85 0.02 256.72-0.15 256.72-0.37L256.72-0.37Q256.62-0.37 256.85-0.78 257.08-1.2 257.5-1.86 257.91-2.51 258.41-3.36 258.91-4.2 259.38-5.05L259.38-5.05 259.77-10.55Q259.87-11.94 259.93-12.62 259.99-13.31 259.99-13.35L259.99-13.35Q258.52-13.38 257.8-13.5 257.08-13.62 257.08-14.04L257.08-14.04Q257.08-14.23 257.44-14.77 257.79-15.31 258.3-16 258.82-16.7 259.39-17.46 259.96-18.21 260.4-18.85L260.4-18.85 261.01-27.15 260.94-27.15Q260.4-27.12 259.96-27.11 259.52-27.1 259.16-27.1L259.16-27.1Q257.99-27.1 257.48-27.23 256.98-27.37 256.98-27.73L256.98-27.73Q256.98-27.91 257.28-28.44 257.57-28.98 258.01-29.68 258.45-30.37 258.94-31.14 259.43-31.91 259.82-32.57L259.82-32.57 261.28-35.06 271.49-35.06 283.52-35.94Q283.55-35.94 283.66-35.93 283.77-35.91 283.89-35.85 284.01-35.79 284.12-35.64 284.23-35.5 284.23-35.23L284.23-35.23 283.86-33.96Q283.69-33.42 283.45-32.82 283.21-32.23 282.91-31.59L282.91-31.59 281.84-28.76Q281.67-28.34 281.45-28.13 281.23-27.91 280.52-27.88L280.52-27.88Q278.66-27.83 276.38-27.72 274.1-27.61 271.14-27.51L271.14-27.51Q271.05-27.17 271.05-26.97 271.05-26.76 271-26.17L271-26.17 270.88-25.05Q270.83-24.27 270.73-23.36 270.63-22.46 270.49-21.14L270.49-21.14Q271.73-21.19 272.91-21.24 274.1-21.29 275.08-21.33 276.05-21.36 276.77-21.39 277.49-21.41 277.79-21.41L277.79-21.41Q277.98-21.41 278.22-21.26 278.47-21.12 278.47-20.7L278.47-20.7Q278.47-20.51 278.4-20.26ZM287.18 0L287.18 0Q286.89 0 286.6-0.06 286.3-0.12 286.06-0.28 285.81-0.44 285.66-0.72 285.5-1 285.5-1.46L285.5-1.46Q285.5-1.51 285.52-1.56 285.55-1.61 285.55-1.66L285.55-1.66 298.27-23.97Q298.27-24.05 297.74-24.11 297.22-24.17 296.4-24.21 295.58-24.24 294.6-24.28 293.63-24.32 292.74-24.33 291.85-24.34 291.15-24.35 290.45-24.37 290.21-24.37L290.21-24.37Q288.89-24.37 287.74-24.33 286.6-24.29 285.35-24.29L285.35-24.29Q285.08-24.29 284.89-24.48 284.69-24.66 284.69-24.9L284.69-24.9Q284.72-24.93 284.72-24.95L284.72-24.95Q284.72-25.02 284.74-25.1L284.74-25.1 287.89-32.64Q288.11-33.18 288.56-33.51 289.01-33.84 289.59-34.02 290.16-34.2 290.82-34.27 291.48-34.33 292.11-34.33L292.11-34.33Q294.77-34.33 297.36-34.22 299.95-34.11 302.53-33.98 305.1-33.86 307.68-33.75 310.25-33.64 312.89-33.64L312.89-33.64 312.89-32.64 301-10.42Q301-10.38 300.99-10.36 300.98-10.35 300.98-10.3L300.98-10.3Q300.98-10.03 301.22-10 301.46-9.96 301.66-9.96L301.66-9.96 306.49-9.96Q307.96-9.96 309.33-10.14 310.69-10.33 312.16-10.33L312.16-10.33Q312.45-10.33 312.69-10.14 312.94-9.96 312.94-9.69L312.94-9.69Q312.94-9.72 312.89-9.47L312.89-9.47 308.96-1.66Q308.76-1.07 308.24-0.73 307.71-0.39 306.97-0.22 306.23-0.05 305.32 0 304.42 0.05 303.47 0.05L303.47 0.05Q299.63 0.05 295.69 0.02 291.75 0 287.18 0Z" opacity="1" transform="matrix(1,0,0,1,0,0)" fill="#8256d4" class="wordmark-text-0" data-fill-palette-color="primary" id="text-0"></path></svg></g></svg></g></svg></g></svg></g></svg></g></svg></g></svg></g><g mask="url(#fd68e3e5-e90b-4601-b568-bcac733516de)"><g transform="matrix(2.715253102038016, 0, 0, 2.715253102038016, 75.1594924644394, 1.0000000000000142)"><svg xmlns="http://www.w3.org/2000/svg" xmlns:xlink="http://www.w3.org/1999/xlink" version="1.0" x="0" y="0" viewBox="4.667734146118164 4.6859588623046875 90.3050308227539 90.30465698242188" enable-background="new 0 0 100 100" xml:space="preserve" height="90.30465698242188" width="90.3050308227539" class="icon-none" data-fill-palette-color="accent" id="none"><path d="M17.504 35.743c-1.334 8.611 0.522 17.134 5.093 23.382 3.514 4.801 8.413 7.905 13.796 8.739 5.677 0.88 11.253-0.429 15.703-3.685 1.248-0.912 2.36-1.946 3.326-3.076-2.222 0.978-4.814 1.267-7.626 0.831-11.717-1.816-19.673-13.464-17.735-25.964 0.934-6.03 4.384-11.497 9.713-15.397 6.768-4.952 15.953-6.97 25.201-5.537 7.474 1.158 17.67 5.964 25.56 15.213 0 0-22.835-39.421-56.115-20.356C23.689 16.04 18.653 28.323 17.504 35.743z" fill="#421468" data-fill-palette-color="accent"></path><path d="M82.544 65.256c1.659-8.555 0.125-17.141-4.207-23.557-3.331-4.931-8.109-8.217-13.457-9.253-5.639-1.094-11.261 0.004-15.83 3.091-1.282 0.863-2.431 1.854-3.44 2.947 2.257-0.894 4.859-1.084 7.652-0.543 11.64 2.257 19.151 14.196 16.744 26.616-1.161 5.989-4.815 11.324-10.288 15.019-6.949 4.692-16.205 6.364-25.393 4.582C26.902 82.719 16.894 77.532 9.358 67.992c0 0 21.331 40.255 55.307 22.457C75.621 84.712 81.115 72.628 82.544 65.256z" fill="#421468" data-fill-palette-color="accent"></path><path d="M35.726 82.88c8.611 1.334 17.133-0.522 23.381-5.094 4.801-3.514 7.905-8.413 8.74-13.796 0.879-5.676-0.429-11.253-3.686-15.702-0.912-1.248-1.946-2.36-3.076-3.327 0.979 2.222 1.267 4.815 0.831 7.626-1.816 11.717-13.463 19.673-25.965 17.736-6.029-0.934-11.497-4.385-15.395-9.713-4.952-6.768-6.971-15.954-5.538-25.202 1.158-7.474 5.964-17.67 15.213-25.559 0 0-39.421 22.835-20.356 56.115C16.022 76.695 28.305 81.73 35.726 82.88z" fill="#421468" data-fill-palette-color="accent"></path><path d="M90.432 35.718c-5.738-10.955-17.822-16.45-25.194-17.879-8.554-1.659-17.141-0.125-23.557 4.208-4.931 3.331-8.217 8.108-9.254 13.456-1.094 5.64 0.004 11.261 3.092 15.83 0.863 1.282 1.854 2.431 2.946 3.441-0.894-2.257-1.084-4.859-0.542-7.652 2.257-11.64 14.196-19.151 26.615-16.744 5.99 1.161 11.324 4.816 15.019 10.289 4.693 6.949 6.363 16.204 4.583 25.392-1.44 7.423-6.626 17.431-16.167 24.966C67.973 91.025 108.228 69.694 90.432 35.718z" fill="#421468" data-fill-palette-color="accent"></path></svg></g></g></svg></g><defs></defs></svg><rect width="395.52" height="247.2" fill="none" stroke="none" visibility="hidden"></rect></g></svg></g></svg>